:SAMPLES-PER-SECOND 30
:FULLY-SPECIFIED
:DEGREES
193
root  4.785155499 41.30555701 6.81144459 5.119018555 -37.59399414 -8.268981934
lowerback  9.395070076 3.713289976 -2.374639988
upperback  2.379349947 4.481080055 -4.512179852
thorax  -2.598059893 2.208669901 -3.865570068
lowerneck  -5.114870071 4.322130203 -8.445560455
upperneck  14.20689964 5.265180111 10.51949978
head  4.528729916 2.775300026 4.932509899
lclavicle  0 -9.442270133e-015 7.951389973e-016
lhumerus  -5.412230015 -10.47290039 65.93609619
lradius  3.008909849e-031 -1.848054532e-031 148.4420013
lwrist  -7.062250077e-031 -1.765562519e-031 11.19589996
lhand  -1.496451383e-031 -27.76390076 20.11240005
lfingers  90 7.125020027 -90
lthumb  89.89689403 5.08795885 91.16245106
rclavicle  0 -9.442270133e-015 7.951389973e-016
rhumerus  -14.06309986 10.86499977 -73.62750244
rradius  -2.023047313e-031 2.894153349e-031 124.9540024
rwrist  7.062250077e-031 -1.765562519e-031 -3.417140007
rhand  -7.920061211e-032 -33.2840004 9.303460121
rfingers  -90 -7.125020027 -90
rthumb  -92.93752616 -24.25625642 -97.11982154
rfemur  -6.331480026 10.80749989 15.73789978
rtibia  -0 0 45.98730087
rfoot  -0 -11.02630043 -10.32699966
rtoes  5.373923086 19.29304026 -105.8922705
lfemur  -29.9137001 -4.160840034 3.965950012
ltibia  -0 0 48.72980118
lfoot  8.934495551e-032 8.863050461 -4.771989822
ltoes  -4.250644065 -19.5611806 -102.515957
194
root  4.828888976 41.17200055 6.62946701 4.698974609 -38.93899536 -7.963012695
lowerback  9.431900024 3.483959913 -2.453949928
upperback  2.743040085 4.181119919 -4.44257021
thorax  -2.26541996 2.05892992 -3.700609922
lowerneck  -5.241439819 4.46694994 -8.658650398
upperneck  13.42990017 5.581709862 10.16100025
head  4.291950226 2.905240059 4.843530178
lclavicle  0 -9.442270133e-015 7.951389973e-016
lhumerus  -5.249760151 -11.11670017 65.76339722
lradius  3.004773557e-031 -1.854772198e-031 148.3139954
lwrist  -7.062250077e-031 -0 11.15799999
lhand  -1.496451383e-031 -27.76390076 20.11240005
lfingers  90 7.125020027 -90
lthumb  89.89689403 5.08795885 91.16245106
rclavicle  0 -9.442270133e-015 7.951389973e-016
rhumerus  -14.64360046 10.41539955 -73.54340363
rradius  -2.068506809e-031 2.861839202e-031 125.8590012
rwrist  7.062250077e-031 -0 -4.196280003
rhand  -7.920061211e-032 -33.2840004 9.303460121
rfingers  -90 -7.125020027 -90
rthumb  -92.93752616 -24.25625642 -97.11982154
rfemur  -7.057370186 11.45330048 15.49510002
rtibia  -0 0 48.27009964
rfoot  -0 -10.59090042 -9.452119827
rtoes  5.373923086 19.29304026 -105.8922705
lfemur  -29.82649994 -2.751430035 2.842020035
ltibia  -0 0 50.84059906
lfoot  4.465088381e-032 8.683549881 -5.698890209
ltoes  -4.250644065 -19.5611806 -102.515957
195
root  4.872688909 41.00244477 6.442888515 4.419006348 -40.34700012 -7.817993164
lowerback  10.60789967 3.430039883 -2.705600023
upperback  2.250040054 4.004039764 -4.171179771
thorax  -3.472229958 1.96668005 -3.362070084
lowerneck  -5.047780037 4.544559956 -8.838749886
upperneck  13.41810036 5.730370045 9.817099571
head  4.249070168 2.944279909 4.763160229
lclavicle  0 -9.442270133e-015 7.951389973e-016
lhumerus  -6.466340065 -12.68369961 66.3588028
lradius  2.999354951e-031 -1.863521911e-031 148.1470032
lwrist  -1.412450015e-030 -1.765562519e-031 10.97770023
lhand  -1.496451383e-031 -27.76390076 20.11240005
lfingers  90 7.125020027 -90
lthumb  89.89689403 5.08795885 91.16245106
rclavicle  0 -9.442270133e-015 7.951389973e-016
rhumerus  -16.5163002 10.17249966 -73.34860229
rradius  -2.118433437e-031 2.825081204e-031 126.8649979
rwrist  7.062250077e-031 -1.765562519e-031 -4.942749977
rhand  -7.920061211e-032 -33.2840004 9.303460121
rfingers  -90 -7.125020027 -90
rthumb  -92.93752616 -24.25625642 -97.11982154
rfemur  -7.827400208 12.18000031 15.42479992
rtibia  -0 0 50.58119965
rfoot  -0 -10.31869984 -8.314849854
rtoes  5.373923086 19.29304026 -105.8922705
lfemur  -29.70149994 -1.281720042 1.917700052
ltibia  -0 0 52.67829895
lfoot  -0 7.99037981 -7.176159859
ltoes  -4.250644065 -19.5611806 -102.515957
196
root  4.911333369 40.81622146 6.261533452 4.099975586 -41.91200256 -7.62298584
lowerback  13.72270012 3.946229935 -5.292280197
upperback  0.3267259896 4.179979801 -2.247060061
thorax  -7.567470074 2.154020071 -0.2559970021
lowerneck  -4.051799774 4.606520176 -10.13679981
upperneck  14.72959995 5.919640064 8.727720261
head  4.465670109 2.866899967 4.650179863
lclavicle  0 -9.442270133e-015 7.951389973e-016
lhumerus  -11.25790024 -14.94099998 70.75019836
lradius  2.997825382e-031 -1.865981516e-031 148.1000061
lwrist  -1.412450015e-030 -0 9.642250061
lhand  -1.496451383e-031 -27.76390076 20.11240005
lfingers  90 7.125020027 -90
lthumb  89.89689403 5.08795885 91.16245106
rclavicle  0 -9.442270133e-015 7.951389973e-016
rhumerus  -20.24729919 11.27729988 -70.88839722
rradius  -2.177036097e-031 2.780172273e-031 128.0630035
rwrist  7.062250077e-031 -0 -5.858870029
rhand  -7.920061211e-032 -33.2840004 9.303460121
rfingers  -90 -7.125020027 -90
rthumb  -92.93752616 -24.25625642 -97.11982154
rfemur  -8.5269804 13.16609955 15.36480045
rtibia  -0 0 52.79919815
rfoot  -0 -9.876150131 -7.248380184
rtoes  5.373923086 19.29304026 -105.8922705
lfemur  -29.34070015 0.1921190023 1.003900051
ltibia  -0 0 54.19390106
lfoot  -0 7.62541008 -7.869299889
ltoes  -4.250644065 -19.5611806 -102.515957
197
root  4.935288992 40.63266544 6.09528887 3.252990723 -43.46600342 -6.789001465
lowerback  10.16849995 3.109639883 -3.15899992
upperback  2.994859934 3.574219942 -4.272480011
thorax  -2.49000001 1.749240041 -3.097970009
lowerneck  -5.111269951 5.002590179 -8.007989883
upperneck  11.94260025 6.489379883 8.548370361
head  3.824369907 3.297339916 4.212600231
lclavicle  0 -9.442270133e-015 7.951389973e-016
lhumerus  -7.621359825 -14.46280003 66.9197998
lradius  2.964166312e-031 -1.919000289e-031 147.0809937
lwrist  0 -0 10.6196003
lhand  -1.496451383e-031 -27.76390076 20.11240005
lfingers  90 7.125020027 -90
lthumb  89.89689403 5.08795885 91.16245106
rclavicle  0 -9.442270133e-015 7.951389973e-016
rhumerus  -16.83909988 9.489819527 -73.69400024
rradius  -2.174511902e-031 2.782147017e-031 128.0110016
rwrist  0 -0 -5.33784008
rhand  -7.920061211e-032 -33.2840004 9.303460121
rfingers  -90 -7.125020027 -90
rthumb  -92.93752616 -24.25625642 -97.11982154
rfemur  -8.914699554 14.13939953 14.85809994
rtibia  -0 0 54.76039886
rfoot  -8.931208963e-032 -8.726799965 -6.566899776
rtoes  5.373923086 19.29304026 -105.8922705
lfemur  -28.74609947 1.469280005 -0.4299969971
ltibia  -0 0 55.3443985
lfoot  -0 6.973499775 -7.887690067
ltoes  -4.250644065 -19.5611806 -102.515957
198
root  4.93597759 40.44577831 5.943466547 2.231994629 -45.03799438 -5.692993164
lowerback  10.35700035 3.089390039 -4.247019768
upperback  3.002170086 3.423490047 -4.073329926
thorax  -2.665529966 1.672359943 -2.277050018
lowerneck  -5.057250023 5.236499786 -7.963580132
upperneck  11.79730034 6.857970238 8.02875042
head  3.764430046 3.452630043 4.049570084
lclavicle  0 -9.442270133e-015 7.951389973e-016
lhumerus  -8.917819977 -15.02999973 67.92649841
lradius  2.936673463e-031 -1.960814374e-031 146.2689972
lwrist  -1.412450015e-030 -0 10.97710037
lhand  -1.496451383e-031 -27.76390076 20.11240005
lfingers  90 7.125020027 -90
lthumb  89.89689403 5.08795885 91.16245106
rclavicle  0 -9.442270133e-015 7.951389973e-016
rhumerus  -17.34429932 9.479680061 -73.49639893
rradius  -2.195909521e-031 2.765289391e-031 128.4530029
rwrist  7.062250077e-031 -1.765562519e-031 -5.491539955
rhand  -7.920061211e-032 -33.2840004 9.303460121
rfingers  -90 -7.125020027 -90
rthumb  -92.93752616 -24.25625642 -97.11982154
rfemur  -9.101819992 15.1072998 14.22399998
rtibia  -0 0 56.28490067
rfoot  -4.450092933e-032 -7.311759949 -6.139560223
rtoes  5.373923086 19.29304026 -105.8922705
lfemur  -28.09230042 2.768559933 -2.048330069
ltibia  -0 0 56.10960007
lfoot  -0 5.544109821 -7.607910156
ltoes  -4.250644065 -19.5611806 -102.515957
199
root  4.928533299 40.25688772 5.804889033 1.411010742 -46.62199402 -4.99798584
lowerback  10.40439987 2.961070061 -4.675479889
upperback  3.06566 3.205420017 -4.026420116
thorax  -2.652470112 1.561560035 -1.962409973
lowerneck  -5.126420021 5.465149879 -8.011949539
upperneck  11.83100033 7.179319859 7.974720001
head  3.760469913 3.606090069 4.052440166
lclavicle  0 -9.442270133e-015 7.951389973e-016
lhumerus  -10.19929981 -15.30580044 68.61640167
lradius  2.907157278e-031 -2.004315494e-031 145.4160004
lwrist  -7.062250077e-031 -0 11.43290043
lhand  -1.496451383e-031 -27.76390076 20.11240005
lfingers  90 7.125020027 -90
lthumb  89.89689403 5.08795885 91.16245106
rclavicle  0 -9.442270133e-015 7.951389973e-016
rhumerus  -17.64900017 9.601169586 -73.87480164
rradius  -2.208723453e-031 2.755065289e-031 128.7189941
rwrist  1.412450015e-030 -1.765562519e-031 -5.445730209
rhand  -7.920061211e-032 -33.2840004 9.303460121
rfingers  -90 -7.125020027 -90
rthumb  -92.93752616 -24.25625642 -97.11982154
rfemur  -8.953359604 16.04850006 14.0248003
rtibia  -0 0 57.21879959
rfoot  -4.437716645e-032 -5.937930107 -5.854640007
rtoes  5.373923086 19.29304026 -105.8922705
lfemur  -27.24650002 4.163060188 -3.238840103
ltibia  -0 0 56.56639862
lfoot  4.416086314e-032 1.800390005 -4.842440128
ltoes  -4.250644065 -19.5611806 -102.515957
200
root  4.923022263 40.07599898 5.688511105 0.6630249023 -47.90400696 -4.541015625
lowerback  10.56700039 2.873389959 -4.71006012
upperback  3.10029006 3.073159933 -3.986279964
thorax  -2.709569931 1.494740009 -1.891759992
lowerneck  -4.862050056 5.537909985 -7.776649952
upperneck  11.75599957 7.257780075 7.773220062
head  3.705080032 3.639410019 3.94336009
lclavicle  0 -9.442270133e-015 7.951389973e-016
lhumerus  -11.73989964 -16.15640068 69.80419922
lradius  2.879317666e-031 -2.044107096e-031 144.628006
lwrist  -7.062250077e-031 -1.765562519e-031 11.37730026
lhand  -1.496451383e-031 -27.76390076 20.11240005
lfingers  90 7.125020027 -90
lthumb  89.89689403 5.08795885 91.16245106
rclavicle  0 -9.442270133e-015 7.951389973e-016
rhumerus  -18.20969963 9.441559792 -74.24430084
rradius  -2.221059208e-031 2.745130239e-031 128.9759979
rwrist  1.412450015e-030 -0 -5.135540009
rhand  -7.920061211e-032 -33.2840004 9.303460121
rfingers  -90 -7.125020027 -90
rthumb  -92.93752616 -24.25625642 -97.11982154
rfemur  -8.303190231 16.65819931 14.12110043
rtibia  -0 0 57.44810104
rfoot  -8.85372636e-032 -4.384759903 -5.622310162
rtoes  5.373923086 19.29304026 -105.8922705
lfemur  -26.3003006 5.051030159 -4.051750183
ltibia  -0 0 56.83259964
lfoot  4.416831627e-032 -2.085419893 -1.271149993
ltoes  -4.250644065 -19.5611806 -102.515957
